<?xml version="1.0" encoding="UTF-8"?>
<svg width="106px" height="39px" viewBox="0 0 106 39" version="1.1" xmlns="http://www.w3.org/2000/svg" xmlns:xlink="http://www.w3.org/1999/xlink">
    <!-- Generator: Sketch 48.2 (47327) - http://www.bohemiancoding.com/sketch -->
    <title>branch_logo_dk</title>
    <desc>Created with Sketch.</desc>
    <defs></defs>
    <g id="ExtensionConfigurationScreen@2x-2" stroke="none" stroke-width="1" fill="none" fill-rule="evenodd" transform="translate(-440.000000, -160.000000)">
        <g id="branch_logo_dk" transform="translate(440.200002, 160.386040)" fill-rule="nonzero">
            <g id="Group" fill="#333E48">
                <path d="M8.95539954,18.3661584 C6.28829507,18.3661584 4.2717039,19.2009838 2.91646789,21.1199979 L2.91646789,8.54340779 C2.91646789,8.40246325 2.79720712,8.28320248 2.65626257,8.28320248 L0.260205313,8.28320248 C0.119260769,8.28320248 -1.77635684e-15,8.40246325 -1.77635684e-15,8.54340779 L-1.77635684e-15,37.675561 C-1.77635684e-15,37.8165056 0.119260769,37.9357663 0.260205313,37.9357663 C0.260205313,37.9357663 0.260205313,37.9357663 0.260205313,37.9357663 L2.65626257,37.9357663 C2.79720712,37.9357663 2.91646789,37.8165056 2.91646789,37.675561 L2.91646789,35.452974 C3.57782306,36.3853763 4.47769977,37.1226247 5.52936291,37.5888259 C6.61355172,38.065869 7.78447563,38.2935486 8.96624143,38.2827067 C11.4707176,38.2827067 13.4330993,37.4045138 14.8425448,35.6589698 C16.2519902,33.9134259 16.9567129,31.4523173 16.9567129,28.2864859 C16.9567129,25.1206546 16.2519902,22.6812298 14.8533866,20.9573696 C13.4547831,19.2226675 11.4815595,18.3661584 8.95539954,18.3661584 Z M12.8151117,33.5014341 C11.9477606,34.7157256 10.6358922,35.3228713 8.87950632,35.3228713 C6.91712458,35.3228713 5.49683725,34.7807769 4.60780243,33.6965881 C3.7187676,32.6123993 3.27425019,30.8126459 3.27425019,28.2864859 C3.27425019,25.760326 3.70792572,23.9714145 4.57527676,22.9089095 C5.44262781,21.8464044 6.85207325,21.3151519 8.8036131,21.3151519 C10.6142084,21.3151519 11.9477606,21.889772 12.8151117,23.0390121 C13.6824627,24.1882523 14.1161383,25.9229544 14.1161383,28.2648022 C14.1161383,30.5415987 13.6824627,32.2871426 12.8151117,33.5014341 Z" id="Shape"></path>
                <path d="M61.3650864,18.3336327 C57.8739985,18.3336327 55.7706722,19.9599159 55.1852102,21.0657885 L55.1852102,18.9516203 C55.1852102,18.8106758 55.0659495,18.691415 54.9250049,18.691415 L52.5181058,18.691415 C52.3771612,18.691415 52.2579004,18.8106758 52.2579004,18.9516203 C52.2579004,18.9516203 52.2579004,18.9516203 52.2579004,18.9516203 L52.2579004,37.6864029 C52.2579004,37.8273474 52.3771612,37.9466082 52.5181058,37.9466082 L54.914163,37.9466082 C55.0551076,37.9466082 55.1743683,37.8273474 55.1743683,37.6864029 L55.1743683,28.1021739 C55.1743683,25.5976977 55.6405695,23.7979443 56.5838138,22.7137555 C57.5162162,21.6295667 58.9907129,20.827267 61.0073041,20.827267 C62.5251684,20.827267 63.6527248,21.2175749 64.3574475,21.987349 C65.0730121,22.757123 65.4307944,23.9280469 65.4307944,25.5001207 L65.4307944,37.6972448 C65.4307944,37.8381893 65.5500552,37.9574501 65.6909998,37.9574501 L68.087057,37.9574501 C68.2280016,37.9574501 68.3472623,37.8381893 68.3472623,37.6972448 L68.3472623,25.3700181 C68.3472623,22.9089095 67.7618004,21.1199979 66.5908765,20.0032835 C65.4307944,18.886569 63.6852505,18.3227908 61.3650864,18.3336327 Z" id="Shape"></path>
                <path d="M85.5967062,19.2226675 C84.9678767,18.9624622 84.3065216,18.7564663 83.6451664,18.6263637 C82.7344478,18.4312097 81.8020454,18.3336327 80.869643,18.3227908 C77.9965427,18.3227908 75.7956394,19.2009838 74.2344075,20.9573696 C72.6840176,22.7137555 71.9034016,25.2073897 71.9034016,28.4274305 C71.9034016,31.5607361 72.6623338,33.9893191 74.19104,35.7023374 C75.7197462,37.4153557 77.8772819,38.2718649 80.6636472,38.2718649 C82.5501357,38.2718649 84.1222095,37.9574501 85.3798685,37.3394625 C85.4666036,37.2960949 85.520813,37.2093598 85.520813,37.1009409 L85.520813,35.062666 C85.520813,34.9217214 85.4015522,34.8024607 85.2606077,34.8024607 C85.228082,34.8024607 85.1955564,34.8133026 85.1630307,34.8241444 C83.6993758,35.3987645 82.1489858,35.7023374 80.5769121,35.7240212 C78.7012654,35.7240212 77.29182,35.0951916 76.3377338,33.8266907 C75.3836477,32.5581898 74.9066046,30.7475945 74.9066046,28.3840629 C74.9066046,23.3967944 76.8581445,20.9031602 80.772066,20.9031602 C81.455105,20.9140021 82.1273021,21.0007372 82.7886572,21.1633655 C83.4174867,21.30431 84.0463162,21.4777802 84.653462,21.7054599 C84.7835646,21.7596693 84.9353511,21.694618 84.9895605,21.5536735 C84.9895605,21.5536735 84.9895605,21.5536735 84.9895605,21.5536735 L85.715967,19.5479242 C85.7918602,19.4178215 85.7268089,19.276877 85.5967062,19.2226675 Z" id="Shape"></path>
                <path d="M46.8911659,19.374454 C45.7852933,18.3553165 44.0831169,17.8457477 41.7846366,17.8457477 C40.6353964,17.8457477 39.4969982,17.9866923 38.3802837,18.2794233 C37.3719881,18.5396286 36.3962182,18.9082528 35.4638158,19.3852959 C35.3445551,19.4503472 35.2903456,19.5912917 35.3445551,19.7105525 L36.0492778,21.4669384 C36.1034872,21.597041 36.2552737,21.6620923 36.3853763,21.6078829 C36.3853763,21.6078829 36.3962182,21.6078829 36.3962182,21.597041 C38.3260743,20.6971643 40.0499345,20.241805 41.5894826,20.241805 C43.0206118,20.241805 44.0614331,20.5995873 44.7119464,21.3259938 C45.1564638,21.8138788 45.5359299,22.8330163 45.5792974,23.732893 L42.8796673,23.7545767 C41.741269,23.7654186 40.386033,23.8413118 39.0199551,24.3725644 C37.773138,24.8387655 36.6564235,25.5868558 35.734863,26.5517839 C34.2928919,28.091332 33.5881692,30.1838164 33.7941651,32.2871426 C33.9893191,34.2928919 34.9759309,35.7890725 36.5805303,36.9383126 C37.7948218,37.8056637 39.2367929,38.261023 40.7221316,38.261023 C41.5027475,38.261023 42.2833634,38.1309203 43.0206118,37.870715 C44.0072236,37.5237746 44.9179422,36.9599964 45.6768744,36.2335899 L45.6768744,37.6538772 C45.6768744,37.7948218 45.7961352,37.9140825 45.9370797,37.9140825 L48.2680856,37.9140825 C48.4090302,37.9140825 48.528291,37.7948218 48.528291,37.6538772 L48.528291,24.40509 C48.5499747,22.1608192 47.9970384,20.3935914 46.8911659,19.374454 Z M45.7636095,29.5116193 C45.7527676,32.0160954 44.5059505,34.7590931 42.0014743,35.6481279 C40.6462383,36.1143291 39.1392159,35.8866495 37.9791339,35.0518241 C35.7890725,33.4797503 35.734863,30.2380258 37.5237746,28.3406954 C38.1851297,27.6576564 38.9874295,27.1264039 39.8764643,26.8011473 C40.8413923,26.4325231 41.8496879,26.3566299 42.8796673,26.345788 L45.7744514,26.3566299 C45.7744514,26.3674718 45.7636095,29.5116193 45.7636095,29.5116193 Z" id="Shape"></path>
                <path d="M31.4089497,18.6805731 C30.7150689,18.5829961 30.021188,18.5396286 29.3273072,18.5396286 C25.9012706,18.6588894 23.4835295,20.8597926 23.4943714,21.0874723 C23.4943714,20.3827496 23.4943714,19.7864457 23.4943714,19.1142486 C23.4943714,18.9733041 23.3751107,18.8540433 23.2341661,18.8540433 L20.8381089,18.8540433 C20.6971643,18.8540433 20.5779035,18.9733041 20.5779035,19.1142486 C20.5779035,19.1142486 20.5779035,19.1142486 20.5779035,19.1142486 L20.5779035,37.8490312 C20.5779035,37.9899758 20.6971643,38.1092365 20.8381089,38.1092365 C20.8381089,38.1092365 20.8381089,38.1092365 20.8381089,38.1092365 L23.2341661,38.1092365 C23.3751107,38.1092365 23.4943714,37.9899758 23.4943714,37.8490312 L23.4943714,27.7769172 C23.4943714,25.8904287 24.0473077,24.3183549 25.1531803,23.049854 C26.2590529,21.7813531 27.5926051,21.1525236 29.153837,21.1525236 C29.7718246,21.1633655 30.3898122,21.2284168 30.996958,21.3585195 C31.1379025,21.3910451 31.2788471,21.2934681 31.3005308,21.1525236 C31.3005308,21.1525236 31.3005308,21.1416817 31.3005308,21.1416817 L31.6257875,18.9624622 C31.6583131,18.8323596 31.5607361,18.7022569 31.4089497,18.6805731 C31.4089497,18.6805731 31.4089497,18.6805731 31.4089497,18.6805731 Z" id="Shape"></path>
                <path d="M103.735185,20.0032835 C102.564261,18.886569 100.818717,18.3227908 98.498553,18.3227908 C95.0074651,18.3227908 92.9041388,19.949074 92.3186768,21.0549466 L92.1885742,17.3144952 L95.3218798,15.395481 C96.4060686,16.1544132 97.9022492,15.883366 98.6611813,14.7991772 C99.4201135,13.7149884 99.1490663,12.2188078 98.0648775,11.4598757 C96.9806887,10.7009435 95.4845081,10.9719907 94.725576,12.0561795 C94.3677937,12.5657483 94.2268491,13.1945778 94.3244261,13.8125654 L92.112681,15.1786433 L91.9500526,10.6684179 L95.0399907,8.78192933 C96.2651241,9.70348981 98.0106681,9.45412639 98.9322285,8.22899304 C99.853789,7.00385969 99.6044256,5.25831571 98.3792923,4.33675522 C97.1541589,3.41519474 95.4086149,3.66455816 94.4870544,4.88969151 C93.9883276,5.55104669 93.8148574,6.40755584 94.0100114,7.22069745 L91.8850013,8.5325659 L91.7548986,4.92221718 C93.0559252,4.42349033 93.7064385,2.95983544 93.1968698,1.65880887 C92.6981429,0.357782306 91.234488,-0.292730978 89.9334615,0.216837761 C88.6324349,0.7264065 87.9819216,2.1792195 88.4914903,3.48024607 C88.7516957,4.14160124 89.2721063,4.67285375 89.9334615,4.92221718 L89.7057818,12.3922781 L87.3964596,10.9177813 C87.7650838,9.34570751 86.778472,7.77363374 85.2063983,7.40500954 C83.6343245,7.03638535 82.0622507,8.02299716 81.6936265,9.59507093 C81.3250023,11.1671447 82.3116141,12.7392185 83.8836879,13.1078427 C84.7727227,13.3138385 85.715967,13.0970008 86.4206897,12.5006969 L89.6407305,14.5389719 L89.4781022,20.0032835 L89.3913671,22.9089095 L89.3913671,37.6538772 C89.3913671,37.7948218 89.5106278,37.9140825 89.6515724,37.9140825 L92.0693134,37.9140825 C92.2102579,37.9140825 92.3295187,37.7948218 92.3295187,37.6538772 L92.3295187,28.0696482 C92.3295187,25.565172 92.7957199,23.7654186 93.7389642,22.6812298 C94.6063152,21.6729342 95.9290256,20.9140021 97.7179371,20.8055832 C97.8480397,20.8055832 97.9781424,20.7947413 98.1082451,20.7947413 L98.1516126,20.7947413 C99.6694769,20.7947413 100.786191,21.1850493 101.501756,21.9548233 C102.217321,22.7245974 102.575103,23.8955213 102.575103,25.4675951 L102.575103,34.9867728 L102.575103,37.6647191 C102.575103,37.8056637 102.694364,37.9249244 102.835308,37.9249244 L105.242207,37.9249244 C105.383152,37.9249244 105.502413,37.8056637 105.502413,37.6647191 L105.502413,34.9867728 L105.502413,25.3591762 C105.491571,22.9089095 104.906109,21.1199979 103.735185,20.0032835 Z" id="Shape"></path>
            </g>
            <g id="Group" transform="translate(82.723606, 0.975770)" fill="#009BDE">
                <path d="M8.12057416,0.0758932164 C7.27490689,0.0758932164 6.59186794,0.758932164 6.59186794,1.60459943 C6.59186794,2.4502667 7.27490689,3.13330565 8.12057416,3.13330565 C8.96624143,3.13330565 9.64928037,2.4502667 9.64928037,1.60459943 C9.66012226,0.758932164 8.96624143,0.0758932164 8.12057416,0.0758932164 Z" id="Shape"></path>
                <path d="M13.8993005,11.1129353 C13.1295264,11.1129353 12.5115388,11.7309229 12.5115388,12.5006969 C12.5115388,13.270471 13.1295264,13.8884586 13.8993005,13.8884586 C14.6690745,13.8884586 15.2870622,13.270471 15.2870622,12.5006969 C15.2870622,11.7309229 14.6690745,11.1129353 13.8993005,11.1129353 Z" id="Shape"></path>
                <path d="M14.7558096,7.0797529 C15.5689513,6.68944493 15.9050498,5.70283312 15.5147418,4.88969151 C15.1244338,4.07654991 14.137822,3.74045138 13.3246804,4.13075935 C12.5115388,4.52106732 12.1754403,5.50767913 12.5657483,6.30997885 C12.9560562,7.13396234 13.942668,7.47006087 14.7558096,7.0797529 Z" id="Shape"></path>
                <path d="M1.83227908,7.5351122 C0.856509157,7.5351122 0.0650513284,8.32657003 0.0650513284,9.30233996 C0.0650513284,10.2781099 0.856509157,11.0695677 1.83227908,11.0695677 C2.80804901,11.0695677 3.59950684,10.2781099 3.59950684,9.30233996 C3.58866495,8.32657003 2.80804901,7.5351122 1.83227908,7.5351122 Z" id="Shape"></path>
            </g>
        </g>
    </g>
</svg>