<?xml version="1.0" encoding="UTF-8"?>
<svg width="14px" height="14px" viewBox="0 0 14 14" version="1.1" xmlns="http://www.w3.org/2000/svg" xmlns:xlink="http://www.w3.org/1999/xlink">
    <!-- Generator: Sketch 48.2 (47327) - http://www.bohemiancoding.com/sketch -->
    <title>04 Icons/Validate/error</title>
    <desc>Created with Sketch.</desc>
    <defs></defs>
    <g id="ExtensionConfigurationScreen@2x-2" stroke="none" stroke-width="1" fill="none" fill-rule="evenodd" transform="translate(-283.000000, -342.000000)">
        <g id="04-Icons/Validate/error" transform="translate(283.000000, 342.000000)" fill="#E37978">
            <path d="M7.63777778,7.63777778 L7.63777778,3.74888889 L6.36222222,3.74888889 L6.36222222,7.63777778 L7.63777778,7.63777778 Z M7.63777778,10.2511111 L7.63777778,8.94444444 L6.36222222,8.94444444 L6.36222222,10.2511111 L7.63777778,10.2511111 Z M7,0.528888889 C8.18222813,0.528888889 9.27629127,0.824441489 10.2822222,1.41555556 C11.2570419,1.97555836 12.0244416,2.74295809 12.5844444,3.71777778 C13.1755585,4.72370873 13.4711111,5.81777187 13.4711111,7 C13.4711111,8.18222813 13.1755585,9.27629127 12.5844444,10.2822222 C12.0244416,11.2570419 11.2570419,12.0244416 10.2822222,12.5844444 C9.27629127,13.1755585 8.18222813,13.4711111 7,13.4711111 C5.81777187,13.4711111 4.72370873,13.1755585 3.71777778,12.5844444 C2.74295809,12.0140712 1.97555836,11.2414864 1.41555556,10.2666667 C0.824441489,9.26073571 0.528888889,8.17185771 0.528888889,7 C0.528888889,5.82814229 0.824441489,4.73926429 1.41555556,3.73333333 C1.98592878,2.75851364 2.75851364,1.98592878 3.73333333,1.41555556 C4.73926429,0.824441489 5.82814229,0.528888889 7,0.528888889 Z" id="error---material"></path>
        </g>
    </g>
</svg>