<?xml version="1.0" encoding="UTF-8"?>
<svg width="99px" height="60px" viewBox="0 0 99 60" version="1.1" xmlns="http://www.w3.org/2000/svg" xmlns:xlink="http://www.w3.org/1999/xlink">
    <!-- Generator: Sketch 51.1 (57501) - http://www.bohemiancoding.com/sketch -->
    <title>gear</title>
    <desc>Created with Sketch.</desc>
    <defs>
        <polygon id="path-1" points="0.269779392 0.0565199966 14.6598391 0.0565199966 14.6598391 13.5999992 0.269779392 13.5999992"></polygon>
        <polygon id="path-3" points="0.263081061 0.522572945 25.7823985 0.522572945 25.7823985 26.0418637 0.263081061 26.0418637"></polygon>
    </defs>
    <g id="Page-1" stroke="none" stroke-width="1" fill="none" fill-rule="evenodd">
        <g id="gear">
            <path d="M88.8499147,52.0158369 C89.0259147,51.5918369 89.1091147,51.151037 89.1091147,50.718237 C89.1091147,49.3830371 88.3187147,48.1134371 87.0115148,47.5718372 L86.5283148,48.7382371 C87.6163148,49.1894371 88.1347147,50.442237 87.6835148,51.5326369 C87.2323148,52.6214369 85.9787149,53.1398368 84.8923149,52.6894369 C84.453115,52.5078369 84.096315,52.1950369 83.860315,51.7838369 L82.7659151,52.4150369 C83.141915,53.0678368 83.709115,53.5662368 84.407515,53.8566368 C86.1387149,54.5734367 88.1323147,53.7486368 88.8499147,52.0158369" id="Fill-1" fill="#93A5BA" fill-rule="nonzero"></path>
            <g id="Group-5" transform="translate(79.999995, 45.998877)">
                <g id="Fill-3-Clipped">
                    <mask id="mask-2" fill="white">
                        <use xlink:href="#path-1"></use>
                    </mask>
                    <g id="path-1"></g>
                    <path d="M12.9030392,0.0911999946 L10.8454394,0.802399952 L11.2574393,1.99679988 L12.7182392,1.49119991 L13.2254392,2.95919982 L11.7646393,3.46399979 C11.4862393,3.56079979 11.3094393,3.83919977 11.3438393,4.12879975 C11.4078393,4.73759972 11.3702393,5.35359968 11.2326393,5.95999964 C11.1678393,6.24559963 11.3078393,6.54079961 11.5718393,6.6695996 L12.9630392,7.34559956 L12.2846393,8.74159948 L10.8918394,8.06559952 C10.6278394,7.93759953 10.3094394,8.00799952 10.1246394,8.23759951 C9.73583942,8.71839948 9.27423945,9.12879946 8.75263948,9.45519944 C8.50303949,9.61199943 8.3942395,9.91919941 8.49103949,10.1967994 L8.99583946,11.6575993 L7.52783955,12.1655993 L7.02303958,10.7047994 C6.92703959,10.4263994 6.6518396,10.2511994 6.35903962,10.2823994 C5.74863966,10.3471994 5.13263969,10.3095994 4.52703973,10.1719994 C4.24063975,10.1063994 3.94703976,10.2463994 3.81823977,10.5103994 L3.14143981,11.9023993 L1.7438399,11.2231993 L2.42143986,9.83199941 L1.28543992,9.27839945 L0.33183998,11.2383993 C0.260639984,11.3887993 0.250239985,11.5623993 0.303039982,11.7207993 C0.358239979,11.8791993 0.473439972,12.0087993 0.623839963,12.0823993 L3.15663981,13.3143992 C3.47023979,13.4671992 3.84863977,13.3359992 4.00063976,13.0223992 L4.74303972,11.4975993 C5.15583969,11.5607993 5.57103967,11.5863993 5.98703964,11.5735993 L6.53983961,13.1743992 C6.59503961,13.3327992 6.7102396,13.4631992 6.86063959,13.5367992 C7.01183958,13.6095992 7.18543957,13.6199992 7.34303956,13.5655992 L10.0054394,12.6447992 C10.3358394,12.5319993 10.5102394,12.1711993 10.3958394,11.8415993 L9.84303941,10.2407994 C10.1782394,9.9935994 10.4886394,9.71679942 10.7742394,9.41279944 L12.2990393,10.1543994 C12.6126392,10.3071994 12.9902392,10.1751994 13.1438392,9.86239941 L14.3758391,7.33039956 C14.4478391,7.17919957 14.4574391,7.00639958 14.4046391,6.84719959 C14.3494391,6.6895996 14.2342392,6.55919961 14.0838392,6.48559961 L12.5590393,5.74399966 C12.6222392,5.33119968 12.6438392,4.91439971 12.6342392,4.50079973 L14.2350392,3.94639976 C14.4966391,3.85599977 14.6598391,3.61119978 14.6598391,3.3495998 C14.6598391,3.2807998 14.6494391,3.21119981 14.6254391,3.14319981 L13.7062392,0.481599971 C13.6510392,0.323199981 13.5358392,0.192799989 13.3854392,0.119999993 C13.2350392,0.0463999972 13.0606392,0.0367999978 12.9030392,0.0911999946" id="Fill-3" fill="#0075C9" fill-rule="nonzero" mask="url(#mask-2)"></path>
                </g>
            </g>
            <g id="Group-8" transform="translate(72.799996, 19.598879)">
                <g id="Fill-6-Clipped">
                    <mask id="mask-4" fill="white">
                        <use xlink:href="#path-3"></use>
                    </mask>
                    <g id="path-3"></g>
                    <path d="M18.8623989,3.11455981 L18.2647989,4.91295971 C18.1751989,5.17615969 18.2711989,5.46495967 18.4959989,5.62655966 C19.3447988,6.23135963 20.0791988,6.96495958 20.6807988,7.80735953 C20.8423988,8.03215952 21.1311987,8.12735952 21.3935987,8.03935952 L23.1895986,7.44095956 L24.3415985,10.2225594 L22.6487987,11.0697593 C22.4319987,11.1785593 22.2999987,11.3977593 22.2999987,11.6345593 C22.2999987,11.6689593 22.3031987,11.7033593 22.3079987,11.7385593 C22.4791987,12.7593592 22.4791987,13.7977592 22.3063987,14.8249591 C22.2663987,15.0937591 22.3991987,15.3689591 22.6471987,15.4945591 L24.3415985,16.341759 L23.1895986,19.1233589 L21.3903987,18.5241589 C21.1287987,18.4369589 20.8391988,18.5313589 20.6783988,18.7569589 C20.0743988,19.6041588 19.3407988,20.3385588 18.4967989,20.9409588 C18.2719989,21.1017587 18.1751989,21.3921587 18.2655989,21.6545587 L18.8623989,23.4497586 L16.080799,24.6017585 L15.2343991,22.9097586 C15.1103991,22.6617586 14.8391991,22.5241587 14.5655991,22.5689587 C13.5463992,22.7393586 12.5079993,22.7385586 11.4791993,22.5665587 C11.2063993,22.5209587 10.9351993,22.6593586 10.8111994,22.9065586 L9.96239941,24.6017585 L7.18159957,23.4497586 L7.77919954,21.6521587 C7.87119953,21.3881587 7.77359954,21.0993587 7.54719955,20.9377588 C6.6991996,20.3329588 5.96399964,19.5993588 5.36399968,18.7577589 C5.20319969,18.5313589 4.91279971,18.4377589 4.65039972,18.5257589 L2.85439983,19.1233589 L1.7031999,16.341759 L3.3943998,15.4945591 C3.64319978,15.3705591 3.77679977,15.1049591 3.73519978,14.8257591 C3.56319979,13.8073592 3.56479979,12.7697592 3.73839978,11.7393593 C3.77919977,11.4681593 3.64559978,11.1953593 3.3967998,11.0705593 L1.7031999,10.2225594 L2.85439983,7.44095956 L4.65119972,8.04015952 C4.91439971,8.12815952 5.20479969,8.03295952 5.36559968,7.80735953 C5.97199964,6.95935959 6.7063996,6.22415963 7.54719955,5.62415966 C7.77279954,5.46335967 7.86879953,5.17295969 7.77919954,4.91055971 L7.18159957,3.11455981 L9.96239941,1.96255988 L10.8103994,3.65535978 C10.9343993,3.90255977 11.2055993,4.04095976 11.4791993,3.99535976 C12.4983993,3.82495977 13.5359992,3.82655977 14.5647991,3.99775976 C14.8383991,4.04335976 15.1095991,3.90495977 15.2335991,3.65775978 L16.081599,1.96255988 L18.8623989,3.11455981 Z M15.2151991,0.871359948 L14.3079991,2.68495984 C13.4495992,2.57935985 12.5879992,2.57855985 11.7359993,2.68255984 L10.8279994,0.871359948 C10.6791994,0.575359966 10.3279994,0.444159974 10.0223994,0.570559966 L6.15519963,2.17295987 C5.85039965,2.29935986 5.69119966,2.63855984 5.79759965,2.95615982 L6.43759962,4.87695971 C5.76079966,5.40655968 5.15119969,6.01695964 4.61919972,6.6977596 L2.69599984,6.05775964 C2.38079986,5.95295965 2.03999988,6.10895964 1.91279989,6.41535962 L0.311199981,10.2825594 C0.184799989,10.5881594 0.315199981,10.9401593 0.611999964,11.0889593 L2.42479986,11.9969593 C2.31919986,12.8537592 2.31839986,13.7161592 2.42159986,14.5689591 L0.611199964,15.4753591 C0.315199981,15.6233591 0.184799989,15.975359 0.311199981,16.281759 L1.91279989,20.1497588 C2.03999988,20.4553588 2.38079986,20.6113588 2.69519984,20.5065588 L4.61679972,19.8673588 C5.14639969,20.5441588 5.75679966,21.1537587 6.43759962,21.6857587 L5.79759965,23.6089586 C5.69039966,23.9225586 5.85039965,24.2641586 6.15519963,24.3921585 L10.0223994,25.9937585 C10.3279994,26.1201584 10.6791994,25.9897585 10.8279994,25.6929585 L11.7367993,23.8793586 C12.5935992,23.9849586 13.4559992,23.9865586 14.3095991,23.8817586 L15.2151991,25.6929585 C15.3639991,25.9897585 15.7151991,26.1201584 16.020799,25.9937585 L19.8887988,24.3921585 C20.1943988,24.2649586 20.3543988,23.9241586 20.2463988,23.6089586 L19.6071988,21.6873587 C20.2839988,21.1569587 20.8935988,20.5465588 21.4247987,19.8665588 L23.3487986,20.5065588 C23.6631986,20.6113588 24.0055986,20.4553588 24.1319986,20.1497588 L25.7335985,16.281759 C25.8623985,15.975359 25.7303985,15.6233591 25.4327985,15.4753591 L23.6191986,14.5681591 C23.7255986,13.7113592 23.7255986,12.8489592 23.6215986,11.9961593 L25.4327985,11.0889593 C25.6527985,10.9785593 25.7815985,10.7569594 25.7815985,10.5241594 C25.7815985,10.4433594 25.7663985,10.3617594 25.7335985,10.2825594 L24.1319986,6.41535962 C24.0055986,6.10895964 23.6631986,5.95295965 23.3487986,6.05775964 L21.4271987,6.6977596 C20.8967988,6.02015964 20.2871988,5.41135968 19.6063988,4.87935971 L20.2463988,2.95615982 C20.3543988,2.63935984 20.1951988,2.29935986 19.8887988,2.17295987 L16.020799,0.570559966 C15.7151991,0.444159974 15.3639991,0.575359966 15.2151991,0.871359948 Z" id="Fill-6" fill="#0075C9" fill-rule="nonzero" mask="url(#mask-4)"></path>
                </g>
            </g>
            <path d="M87.1186348,29.7501582 C87.9538348,30.0965582 88.6050347,30.7469582 88.9506347,31.5829581 C89.2962347,32.4189581 89.2970347,33.338958 88.9498347,34.175758 C88.6026347,35.0117579 87.9530348,35.6629579 87.1170348,36.0085579 C86.2810349,36.3549578 85.3618349,36.3549578 84.525835,36.0085579 C83.224235,35.4685579 82.4362351,34.205358 82.4362351,32.875758 C82.4362351,32.4437581 82.5194351,32.0053581 82.6946351,31.5829581 C83.0410351,30.7469582 83.691435,30.0965582 84.527435,29.7501582 C85.3634349,29.4029582 86.2842349,29.4029582 87.1186348,29.7501582 M81.5282351,31.0997581 C80.5442352,33.469358 81.6738351,36.1941578 84.041835,37.1757578 C85.1898349,37.6509578 86.4530348,37.6509578 87.6002348,37.1757578 C88.7482347,36.7005578 89.6402347,35.8061579 90.1162346,34.6597579 C90.3546346,34.085358 90.4738346,33.481358 90.4738346,32.878158 C90.4738346,32.2757581 90.3554346,31.6733581 90.1178346,31.0997581 C89.6426347,29.9525582 88.7498347,29.0589583 87.6018348,28.5829583 C86.4562348,28.1077583 85.1922349,28.1077583 84.044235,28.5829583 C82.8978351,29.0589583 82.0034351,29.9525582 81.5282351,31.0997581" id="Fill-9" fill="#0075C9" fill-rule="nonzero"></path>
            <path d="M76.9147154,47.0931972 L78.3771153,46.4867972 L78.9899153,47.9667971 L77.5283154,48.5731971 C77.2891154,48.6723971 77.1379154,48.9043971 77.1379154,49.1555971 C77.1379154,49.1907971 77.1403154,49.2251971 77.1459154,49.2603971 C77.2499154,49.876397 77.2491154,50.505997 77.1443154,51.130797 C77.0979154,51.4195969 77.2547154,51.7059969 77.5259154,51.8179969 L78.9899153,52.4243969 L78.3763153,53.9043968 L76.9123154,53.2971968 C76.6411154,53.1843968 76.3283155,53.2747968 76.1579155,53.5139968 C75.7899155,54.0283968 75.3451155,54.4739968 74.8355155,54.8379967 C74.5955156,55.0083967 74.5083156,55.3227967 74.6187156,55.5931967 L75.2251155,57.0555966 L73.7459156,57.6691966 L73.1395156,56.2059966 C73.0275156,55.9339967 72.7427157,55.7763967 72.4523157,55.8243967 C71.8331157,55.9275967 71.2043158,55.9275967 70.5819158,55.8235967 C70.2915158,55.7755967 70.0059158,55.9331967 69.8947158,56.2051966 L69.2883159,57.6691966 L67.808316,57.0555966 L68.4147159,55.5923967 C68.5283159,55.3203967 68.4387159,55.0075967 68.1987159,54.8363967 C67.683516,54.4683968 67.237916,54.0235968 66.874716,53.5139968 C66.704316,53.2755968 66.390716,53.1851968 66.1195161,53.2979968 L64.6571161,53.9043968 L64.0443162,52.4243969 L65.5059161,51.8187969 C65.7771161,51.7067969 65.9299161,51.4171969 65.8875161,51.131597 C65.7843161,50.514797 65.7867161,49.884397 65.8899161,49.2603971 C65.9331161,48.9715971 65.7787161,48.6859971 65.5075161,48.5731971 L64.0443162,47.9667971 L64.6579161,46.4867972 L66.1211161,47.0939972 C66.393116,47.2067972 66.705116,47.1163972 66.876316,46.8771972 C67.243516,46.3627972 67.689116,45.9171973 68.1979159,45.5539973 C68.4387159,45.3819973 68.5291159,45.0675973 68.4147159,44.7987973 L67.809116,43.3363974 L69.2883159,42.7227975 L69.8947158,44.1851974 C70.0059158,44.4571974 70.2915158,44.6147973 70.5819158,44.5667973 C71.1995158,44.4635973 71.8291157,44.4635973 72.4523157,44.5683973 C72.7427157,44.6155973 73.0275156,44.4579974 73.1395156,44.1859974 L73.7459156,42.7227975 L75.2259155,43.3363974 L74.6187156,44.7995973 C74.5075156,45.0699973 74.5963156,45.3835973 74.8355155,45.5555973 C75.3499155,45.9219973 75.7947155,46.3667972 76.1595155,46.8763972 C76.3307155,47.1155972 76.6427154,47.2059972 76.9147154,47.0931972 M78.9611153,45.0787973 C78.8059153,45.0147973 78.6315153,45.0147973 78.4771153,45.0787973 L76.8771154,45.7419973 C76.6035154,45.4123973 76.3011155,45.1099973 75.9707155,44.8363973 L76.6339154,43.2363974 C76.6979154,43.0795974 76.6979154,42.9075974 76.6339154,42.7523975 C76.5691154,42.5979975 76.4467154,42.4747975 76.2923155,42.4099975 L73.6451156,41.3139975 C73.3235156,41.1811975 72.9547157,41.3339975 72.8203157,41.6563975 L72.1571157,43.2563974 C71.7307157,43.2163974 71.3011158,43.2163974 70.8763158,43.2555974 L70.2131158,41.6563975 C70.1491158,41.5011975 70.0267158,41.3787975 69.8715158,41.3139975 C69.7171158,41.2499975 69.5427159,41.2499975 69.3883159,41.3139975 L66.742716,42.4107975 C66.419516,42.5443975 66.2667161,42.9155974 66.400316,43.2363974 L67.064316,44.8355973 C66.733916,45.1083973 66.431516,45.4107973 66.1571161,45.7419973 L64.5571162,45.0787973 C64.2347162,44.9451973 63.8659162,45.0987973 63.7315162,45.4203973 L62.6355163,48.0675971 C62.5723163,48.2219971 62.5723163,48.3955971 62.6355163,48.5499971 C62.6995163,48.7051971 62.8235163,48.8275971 62.9779162,48.8923971 L64.5779162,49.554797 C64.5387162,49.983597 64.5363162,50.411597 64.5771162,50.837197 L62.9779162,51.4995969 C62.6555163,51.6323969 62.5035163,51.9995969 62.6355163,52.3243969 L63.7315162,54.9707967 C63.7955162,55.1251967 63.9187162,55.2475967 64.0731162,55.3115967 C64.2283162,55.3763967 64.4011162,55.3763967 64.5563162,55.3115967 L66.1563161,54.6491967 C66.429116,54.9779967 66.732316,55.2811967 67.062716,55.5547967 L66.399516,57.1555966 C66.336316,57.3107966 66.336316,57.4835966 66.399516,57.6387966 C66.464316,57.7931966 66.586716,57.9163965 66.741116,57.9803965 L69.3883159,59.0763965 C69.5427159,59.1419965 69.7171158,59.1419965 69.8715158,59.0763965 C70.0267158,59.0123965 70.1491158,58.8899965 70.2131158,58.7355965 L70.8763158,57.1347966 C71.3027158,57.1747966 71.7315157,57.1747966 72.1571157,57.1355966 L72.8203157,58.7355965 C72.8843157,58.8899965 73.0075156,59.0123965 73.1627156,59.0763965 C73.3171156,59.1419965 73.4907156,59.1419965 73.6451156,59.0763965 L76.2915155,57.9803965 C76.6131154,57.8475966 76.7651154,57.4771966 76.6331154,57.1555966 L75.9699155,55.5563967 C76.2987155,55.2827967 76.6019154,54.9795967 76.8763154,54.6491967 L78.4763153,55.3115967 C78.7979153,55.4451967 79.1675153,55.2931967 79.3011153,54.9707967 L80.3979152,52.3243969 C80.4619152,52.1699969 80.4619152,51.9955969 80.3979152,51.8411969 C80.3331152,51.6859969 80.2107152,51.5635969 80.0563152,51.4995969 L78.4563153,50.836397 C78.4947153,50.408397 78.4979153,49.978797 78.4571153,49.554797 L80.0563152,48.8923971 C80.2987152,48.7915971 80.4459152,48.5555971 80.4459152,48.3083971 C80.4459152,48.2283971 80.4307152,48.1459971 80.3979152,48.0675971 L79.3019153,45.4203973 C79.2379153,45.2659973 79.1155153,45.1427973 78.9611153,45.0787973" id="Fill-11" fill="#0075C9" fill-rule="nonzero"></path>
            <path d="M73.5045556,49.3720771 C73.9581556,50.468077 73.4365556,51.7280769 72.3397557,52.1824769 C71.8093557,52.4024769 71.2245558,52.4024769 70.6941558,52.1832769 C70.1637558,51.9632769 69.7501558,51.5496769 69.5301559,51.018477 C69.4205559,50.752877 69.3645559,50.474477 69.3645559,50.195277 C69.3645559,49.916877 69.4205559,49.637677 69.5293559,49.3720771 C69.7493558,48.8416771 70.1621558,48.4280771 70.6933558,48.2088771 C71.7893557,47.7552772 73.0501556,48.2768771 73.5045556,49.3720771 M70.2109558,47.0416772 C69.3685559,47.3904772 68.7117559,48.0472771 68.3629559,48.8888771 C68.0157559,49.731277 68.0157559,50.659277 68.3629559,51.5016769 C68.7125559,52.3448769 69.3685559,53.0008768 70.2109558,53.3496768 C71.0533558,53.6984768 71.9813557,53.6984768 72.8229557,53.3496768 C74.1365556,52.8048769 74.9301555,51.5304769 74.9301555,50.190477 C74.9301555,49.756077 74.8477555,49.3152771 74.6709555,48.8888771 C73.9517556,47.1504772 71.9501557,46.3216772 70.2109558,47.0416772" id="Fill-13" fill="#0075C9" fill-rule="nonzero"></path>
            <path d="M84.014715,14.3142391 L84.014715,11.7206393" id="Stroke-15" stroke="#93A5BA" stroke-width="1.29679992" stroke-linecap="round"></path>
            <path d="M84.014715,8.89471947 L84.014715,4.65551972" id="Stroke-17" stroke="#93A5BA" stroke-width="1.29679992" stroke-linecap="round" stroke-dasharray="2.826399825429917,2.826399825429917"></path>
            <polyline id="Stroke-19" stroke="#93A5BA" stroke-width="1.29679992" stroke-linecap="round" points="84.014715 3.24239981 84.014715 0.648799961 81.4211151 0.648799961"></polyline>
            <polyline id="Stroke-21" stroke="#93A5BA" stroke-width="1.29679992" stroke-linecap="round" points="75.6756755 0.648639961 73.0820756 0.648639961 73.0820756 3.24223981"></polyline>
            <path d="M73.0819156,7.97287952 L73.0819156,15.0680791" id="Stroke-23" stroke="#93A5BA" stroke-width="1.29679992" stroke-linecap="round" stroke-dasharray="4.730399803495402,4.730399803495402"></path>
            <polyline id="Stroke-25" stroke="#93A5BA" stroke-width="1.29679992" stroke-linecap="round" points="73.0819156 17.433759 73.0819156 20.0273588 70.4883158 20.0273588"></polyline>
            <path d="M66.0615961,20.0275188 L59.4207965,20.0275188" id="Stroke-27" stroke="#93A5BA" stroke-width="1.29679992" stroke-linecap="round" stroke-dasharray="4.426399730062485,4.426399730062485"></path>
            <polyline id="Stroke-29" stroke="#93A5BA" stroke-width="1.29679992" stroke-linecap="round" points="57.2076766 20.0275188 54.6140767 20.0275188 54.6140767 22.6219187"></polyline>
            <path d="M54.6139967,28.3595983 L54.6139967,48.4411971" id="Stroke-31" stroke="#93A5BA" stroke-width="1.29679992" stroke-linecap="round" stroke-dasharray="5.737599603080753,5.737599603080753"></path>
            <polyline id="Stroke-33" stroke="#93A5BA" stroke-width="1.29679992" stroke-linecap="round" points="54.6139967 51.3095969 54.6139967 53.9039968 52.0203969 53.9039968"></polyline>
            <path d="M46.1584772,53.9040768 L13.9200792,53.9040768" id="Stroke-35" stroke="#93A5BA" stroke-width="1.29679992" stroke-linecap="round" stroke-dasharray="5.861599763536447,5.861599763536447"></path>
            <path d="M10.9897593,53.9040768 L8.3961595,53.9040768" id="Stroke-37" stroke="#93A5BA" stroke-width="1.29679992" stroke-linecap="round"></path>
            <path d="M2.59367985,51.6799169 C4.02647976,51.6799169 5.18807969,52.8407169 5.18807969,54.2735168 C5.18807969,55.7063167 4.02647976,56.8679166 2.59367985,56.8679166 C1.16167993,56.8679166 7.99999952e-05,55.7063167 7.99999952e-05,54.2735168 C7.99999952e-05,52.8407169 1.16167993,51.6799169 2.59367985,51.6799169" id="Fill-39" fill="#93A5BA" fill-rule="nonzero"></path>
        </g>
    </g>
</svg>